
<svg version="1.1" id="_레이어_1" xmlns="http://www.w3.org/2000/svg" xmlns:xlink="http://www.w3.org/1999/xlink" x="0px"
	 y="0px" viewBox="0 0 566.9 566.9" style="enable-background:new 0 0 566.9 566.9;" xml:space="preserve">
<style type="text/css">
	.st0{fill:url(#SVGID_1_);}
	.st1{fill:url(#SVGID_00000170245686147648403080000005319629074609017260_);}
	.st2{fill:url(#SVGID_00000136402183141331040870000000103621086952356262_);}
	.st3{fill:url(#SVGID_00000059989203632768070390000013842627254428318652_);}
	.st4{fill:url(#SVGID_00000060022946612949412350000016441828165359246995_);}
	.st5{fill:url(#SVGID_00000139997475330080428970000002343813727139173794_);}
</style>
<g>
	<g>
		
			<linearGradient id="SVGID_1_" gradientUnits="userSpaceOnUse" x1="82.7479" y1="305.2791" x2="424.58" y2="305.2791" gradientTransform="matrix(1 0 0 -1 0 566.9291)">
			<stop  offset="0" style="stop-color:#AE97C6"/>
			<stop  offset="0.49" style="stop-color:#4A7DBC"/>
			<stop  offset="1" style="stop-color:#AAD8C2"/>
		</linearGradient>
		<path class="st0" d="M278,237.1c6.5-2.6,13-5.1,19.4-7.4c48.2-17.6,93.1-28.4,127.1-31.3c-31.2,0.5-79.7,11.2-134.2,30.2
			c-11.6,4.1-23.5,8.5-35.6,13.3c-36.2,14.4-69.1,30.1-96.2,45.5c19.1-64,78.4-110.7,148.6-110.7c29.6,0,57.2,8.3,80.8,22.7
			c-24-28.5-59.9-46.6-100-46.6c-72.1,0-130.6,58.5-130.6,130.6c0,1.6,0,3.1,0.1,4.7c-50,28.6-80,56-73.9,71.2
			c3.1,7.7,14.8,11.3,32.9,11.3c-3.1-2.1-5.2-4.7-6.4-7.8C98.8,334.7,174.1,278.4,278,237.1L278,237.1z"/>
		
			<linearGradient id="SVGID_00000052089235598524213080000003951822571840509070_" gradientUnits="userSpaceOnUse" x1="142.35" y1="282.4491" x2="484.1834" y2="282.4491" gradientTransform="matrix(1 0 0 -1 0 566.9291)">
			<stop  offset="0" style="stop-color:#AE97C6"/>
			<stop  offset="0.49" style="stop-color:#4A7DBC"/>
			<stop  offset="1" style="stop-color:#AAD8C2"/>
		</linearGradient>
		<path style="fill:url(#SVGID_00000052089235598524213080000003951822571840509070_);" d="M483.4,209.7c-3-7.7-14.8-11.3-32.9-11.3
			c3,2.1,5.2,4.7,6.4,7.8c11.2,28.1-64.1,84.4-168,125.7c-55.5,22-108,35.4-146.6,38.7c37.8-0.6,101.2-16.2,169.8-43.4
			C416.1,285.9,492.8,233.3,483.4,209.7L483.4,209.7z"/>
		
			<linearGradient id="SVGID_00000148657823485453281230000007640625653752663957_" gradientUnits="userSpaceOnUse" x1="187.77" y1="221.7691" x2="418.43" y2="221.7691" gradientTransform="matrix(1 0 0 -1 0 566.9291)">
			<stop  offset="0" style="stop-color:#AE97C6"/>
			<stop  offset="0.49" style="stop-color:#4A7DBC"/>
			<stop  offset="1" style="stop-color:#AAD8C2"/>
		</linearGradient>
		<path style="fill:url(#SVGID_00000148657823485453281230000007640625653752663957_);" d="M268.5,390.3c-29.6,0-57.2-8.3-80.8-22.7
			c24,28.5,59.9,46.6,100,46.6c72.1,0,130.6-58.5,130.6-130.6c0-2.5-0.1-5-0.2-7.5C400.2,341.9,340,390.3,268.5,390.3L268.5,390.3z"
			/>
	</g>
	
		<linearGradient id="SVGID_00000046321099094381787210000005012146890557091766_" gradientUnits="userSpaceOnUse" x1="110.18" y1="298.8091" x2="137.96" y2="298.8091" gradientTransform="matrix(1 0 0 -1 0 566.9291)">
		<stop  offset="0" style="stop-color:#AE97C6"/>
		<stop  offset="1" style="stop-color:#4A7DBC"/>
	</linearGradient>
	<circle style="fill:url(#SVGID_00000046321099094381787210000005012146890557091766_);" cx="124.1" cy="268.1" r="13.9"/>
	
		<linearGradient id="SVGID_00000042733500184631006740000006264192327659712701_" gradientUnits="userSpaceOnUse" x1="361.53" y1="305.2891" x2="389.31" y2="305.2891" gradientTransform="matrix(1 0 0 -1 0 566.9291)">
		<stop  offset="0" style="stop-color:#4A7DBC"/>
		<stop  offset="1" style="stop-color:#AAD8C2"/>
	</linearGradient>
	<circle style="fill:url(#SVGID_00000042733500184631006740000006264192327659712701_);" cx="375.4" cy="261.6" r="13.9"/>
	
		<linearGradient id="SVGID_00000154399290159084062750000017589901143692712076_" gradientUnits="userSpaceOnUse" x1="394.4" y1="326.1291" x2="408.3" y2="326.1291" gradientTransform="matrix(1 0 0 -1 0 566.9291)">
		<stop  offset="0" style="stop-color:#4A7DBC"/>
		<stop  offset="1" style="stop-color:#AAD8C2"/>
	</linearGradient>
	<circle style="fill:url(#SVGID_00000154399290159084062750000017589901143692712076_);" cx="401.4" cy="240.8" r="7"/>
</g>
</svg>
