<svg width="62.5" height="42.5" viewBox="0 0 25 17" fill="none" xmlns="http://www.w3.org/2000/svg">
<path d="M11.9529 5.65985C12.3508 5.5007 12.7486 5.34768 13.1403 5.2069C16.0906 4.12964 18.8388 3.46859 20.9199 3.29109C19.0102 3.32169 16.0416 3.97662 12.7058 5.13958C11.9958 5.39053 11.2674 5.65984 10.5268 5.95364C8.31103 6.83504 6.29728 7.79601 4.63854 8.73861C5.80761 4.82129 9.43726 1.96287 13.7341 1.96287C15.5458 1.96287 17.2352 2.4709 18.6797 3.3523C17.2107 1.60787 15.0133 0.5 12.5589 0.5C8.14576 0.5 4.56509 4.08067 4.56509 8.49378C4.56509 8.59171 4.56509 8.68353 4.57121 8.78146C1.5108 10.532 -0.32544 12.2091 0.0479294 13.1395C0.237675 13.6108 0.95381 13.8311 2.06168 13.8311C1.87193 13.7026 1.74339 13.5435 1.66994 13.3537C0.984414 11.6338 5.59338 8.18774 11.9529 5.65985Z" fill="#D4D4D4"/>
<path d="M24.5256 3.98303C24.3419 3.51173 23.6197 3.29138 22.5118 3.29138C22.6954 3.41992 22.8301 3.57906 22.9035 3.76881C23.5891 5.48875 18.9801 8.93477 12.6206 11.4627C9.22352 12.8092 6.01009 13.6294 3.64746 13.8314C5.96113 13.7947 9.84172 12.8399 14.0406 11.175C20.4062 8.64709 25.1009 5.42755 24.5256 3.98303Z" fill="#D4D4D4"/>
<path d="M11.3709 15.0372C9.55915 15.0372 7.8698 14.5292 6.42529 13.6478C7.89429 15.3922 10.0917 16.5001 12.5461 16.5001C16.9592 16.5001 20.5399 12.9194 20.5399 8.5063C20.5399 8.35328 20.5338 8.20026 20.5276 8.04724C19.432 12.0747 15.7473 15.0372 11.3709 15.0372Z" fill="#D4D4D4"/>
<path d="M2.06161 6.93633C2.44405 6.93633 2.75408 6.6263 2.75408 6.24386C2.75408 5.86142 2.44405 5.55139 2.06161 5.55139C1.67917 5.55139 1.36914 5.86142 1.36914 6.24386C1.36914 6.6263 1.67917 6.93633 2.06161 6.93633Z" fill="#D4D4D4"/>
<path d="M14.5811 6.61272C14.9636 6.61272 15.2736 6.30269 15.2736 5.92025C15.2736 5.53781 14.9636 5.22778 14.5811 5.22778C14.1987 5.22778 13.8887 5.53781 13.8887 5.92025C13.8887 6.30269 14.1987 6.61272 14.5811 6.61272Z" fill="#D4D4D4"/>
<path d="M15.8761 5.23285C16.0687 5.23285 16.2248 5.07672 16.2248 4.88413C16.2248 4.69153 16.0687 4.5354 15.8761 4.5354C15.6835 4.5354 15.5273 4.69153 15.5273 4.88413C15.5273 5.07672 15.6835 5.23285 15.8761 5.23285Z" fill="#D4D4D4"/>
</svg>
