<svg width="180" height="56" viewBox="0 0 90 28" fill="none" xmlns="http://www.w3.org/2000/svg">
<g clip-path="url(#clip0_52_21)">
<path d="M15.5688 10.0635C14.4271 9.62539 13.2643 9.23481 12.1014 8.84248C9.91336 8.10179 7.71823 7.37694 5.71897 6.25624C4.90903 5.80233 4.14321 5.29211 3.43914 4.69921C2.13336 3.59786 1.1752 2.25196 0.681116 0.571788C0.62465 0.380019 0.617591 0.142507 0.344083 0C0.2735 0.226956 0.1888 0.408168 0.164096 0.589381C0.0105782 1.6573 -0.0564756 2.71819 0.0564571 3.76676C0.264677 5.69852 1.05697 7.31009 2.37864 8.63135C3.54325 9.79604 4.95315 10.6089 6.49715 11.2334C7.80999 11.7648 9.19165 12.1307 10.5521 12.5477C11.4291 12.8168 12.2902 13.1212 13.0843 13.5593C13.7531 13.927 14.3495 14.3756 14.7712 15.0213C13.8854 14.344 12.8637 13.9534 11.7697 13.6948C10.328 13.3534 8.88109 13.035 7.44649 12.6726C6.69655 12.4826 5.95366 12.2591 5.23724 11.9882C4.31261 11.6381 3.50443 11.0997 2.77566 10.4558C2.54803 10.2535 2.31335 10.0599 2.09454 9.87345C1.83691 9.95966 1.90044 10.1145 1.93926 10.2429C2.71743 12.8274 4.18556 14.8207 6.68949 15.945C7.69882 16.3989 8.76462 16.6927 9.8569 16.9425C10.6845 17.1325 11.5032 17.3524 12.3167 17.5829C12.832 17.7289 13.2855 17.9911 13.6754 18.3429C13.7566 18.4168 13.8219 18.5083 13.9895 18.7036C13.7425 18.6508 13.626 18.6491 13.5378 18.6051C12.5708 18.1107 11.5138 17.8644 10.4074 17.7377C9.69985 17.6568 8.99578 17.5583 8.29348 17.4615C7.10593 17.2979 6.04365 16.8932 5.1649 16.1297C5.05902 16.0382 4.93727 15.9643 4.8208 15.8851C4.80316 15.8728 4.77493 15.8763 4.74846 15.8728C4.58965 15.9432 4.60553 16.0646 4.64082 16.1825C4.8508 16.9073 5.21783 17.5372 5.68368 18.1072C6.66302 19.3071 7.95292 20.0706 9.45104 20.5474C9.86395 20.6794 10.2786 20.8096 10.6862 20.9556C10.8645 21.0207 11.0374 21.1086 11.1927 21.2124C11.5174 21.4306 11.6585 21.735 11.4927 22.1572C11.4556 22.2505 11.3533 22.3472 11.3285 22.4282C11.3991 22.6217 11.565 22.583 11.7079 22.5847C11.782 22.5847 11.8579 22.5689 11.932 22.5566C13.1055 22.3419 14.346 22.0552 15.4612 21.5608C17.464 20.6741 18.8121 19.1839 19.4526 17.1396C20.1214 15.0019 19.6856 13.174 18.2227 11.6979C17.4834 10.9502 16.564 10.4452 15.5759 10.067L15.5688 10.0635Z" fill="#1760EF"/>
<path d="M30.9965 9.83826C26.7262 9.83826 25.0975 11.7577 25.0975 13.5294C25.0975 15.6212 26.1333 16.654 30.0083 17.5407C31.1182 17.8116 31.7111 18.1318 31.7111 18.7951C31.7111 19.7557 30.5765 20.1727 29.2672 20.1727C27.9579 20.1727 27.1197 19.7293 27.1197 18.7458C27.1197 18.6227 27.1197 18.4995 27.1444 18.3764H23.8376C23.8129 18.598 23.7882 18.8197 23.7882 19.0168C23.7882 21.2072 25.6887 22.5847 28.8719 22.5847C32.7716 22.5847 35.018 20.7145 35.018 18.3025C35.018 15.6934 33.4881 15.5948 30.033 14.6114C28.8984 14.2912 28.2808 13.971 28.2808 13.3816C28.2808 12.5441 29.0219 12.2257 30.4777 12.2257C31.9335 12.2257 32.3534 12.5705 32.3534 13.8249H35.4379C35.4626 13.6033 35.4873 13.3816 35.4873 13.1599C35.4873 11.068 34.1551 9.83826 30.9947 9.83826H30.9965Z" fill="#1760EF"/>
<path d="M49.6815 10.1584L46.447 17.9348L45.9283 10.1584H42.6709L39.6111 17.9348L39.0182 10.1584H35.7361L37.0436 22.2663H40.3257L43.4861 15.2271L44.176 22.2663H47.4599L53.0871 10.1584H49.6815Z" fill="#1760EF"/>
<path d="M55.9511 5.72839H55.7729C55.0459 5.72839 54.4265 6.24916 54.3013 6.96345C54.1424 7.87304 54.8465 8.70697 55.7729 8.70697H55.9511C56.6781 8.70697 57.2975 8.1862 57.4228 7.47191C57.5816 6.56232 56.8775 5.72839 55.9511 5.72839Z" fill="#1760EF"/>
<path d="M51.605 22.2663H54.8147L56.9622 10.1584H53.7525L51.605 22.2663Z" fill="#1760EF"/>
<path d="M71.3505 14.2929L70.807 17.4421C70.5352 18.9428 69.7465 19.8049 68.5113 19.8049C67.4755 19.8049 66.9814 19.4108 66.9814 18.3535C66.9814 18.0825 67.0061 17.7623 67.0802 17.3929L67.9695 12.4227H74.682L75.0772 10.1584H68.3648L68.933 6.88604H65.7744L65.1992 10.1584H62.5894C62.8364 8.75623 63.2811 8.31287 64.9098 8.31287L65.3545 5.72839C61.8994 5.72839 59.9496 7.20449 59.4308 10.1584H57.6291L57.2339 12.4227H59.0355L57.2833 22.2663H60.4419L62.1941 12.4227H64.8004L63.8722 17.7131C63.7981 18.1072 63.7734 18.5013 63.7734 18.869C63.7734 20.9608 64.9574 22.5847 67.9695 22.5847C71.3999 22.5847 73.2509 20.2958 73.7203 17.7377L74.3379 14.2929H71.3522H71.3505Z" fill="#1760EF"/>
<path d="M83.8631 10.1584L82.5555 17.5407C82.3332 18.8443 81.1491 19.8049 79.6934 19.8049C78.5587 19.8049 77.9411 19.5094 77.9411 18.3781C77.9411 18.1318 77.9906 17.8609 78.04 17.5407L79.3475 10.1584H76.1395L74.7579 18.0087C74.7085 18.3289 74.659 18.6491 74.659 18.9446C74.659 21.0611 76.1642 22.3894 78.4105 22.3894C79.9157 22.3894 81.3715 21.749 81.9891 20.667L81.6432 22.6357C81.3715 24.235 80.138 25.2448 78.977 25.2448C77.5212 25.2448 76.8048 24.703 76.8048 23.5471C76.8048 23.35 76.8048 23.153 76.8542 22.9313H73.8685C73.7944 23.35 73.745 23.7688 73.745 24.1365C73.745 26.5485 75.2502 28 78.3364 28C81.4227 28 84.2601 26.0066 84.8777 22.5865L87.0746 10.1584H83.8666H83.8631Z" fill="#1760EF"/>
<path d="M87.9516 20.2782H87.7734C87.0464 20.2782 86.427 20.799 86.3017 21.5133C86.1429 22.4228 86.847 23.2568 87.7734 23.2568H87.9516C88.6786 23.2568 89.298 22.736 89.4233 22.0217C89.5821 21.1121 88.878 20.2782 87.9516 20.2782Z" fill="#1760EF"/>
</g>
<defs>
<clipPath id="clip0_52_21">
<rect width="89.4445" height="28" fill="#1760EF"/>
</clipPath>
</defs>
</svg>
