<svg width="65" height="65" viewBox="0 0 65 65" fill="none" xmlns="http://www.w3.org/2000/svg">
<path d="M12.1875 26.4062C12.7262 26.4062 13.2429 26.1922 13.6238 25.8113C14.0047 25.4304 14.2188 24.9137 14.2188 24.375V14.2188H24.375C24.9137 14.2188 25.4304 14.0047 25.8113 13.6238C26.1922 13.2429 26.4062 12.7262 26.4062 12.1875C26.4062 11.6488 26.1922 11.1321 25.8113 10.7512C25.4304 10.3703 24.9137 10.1562 24.375 10.1562H12.1875C11.6488 10.1562 11.1321 10.3703 10.7512 10.7512C10.3703 11.1321 10.1562 11.6488 10.1562 12.1875V24.375C10.1562 24.9137 10.3703 25.4304 10.7512 25.8113C11.1321 26.1922 11.6488 26.4062 12.1875 26.4062Z" fill="white"/>
<path d="M40.625 14.2188H50.7812V24.375C50.7812 24.9137 50.9953 25.4304 51.3762 25.8113C51.7571 26.1922 52.2738 26.4062 52.8125 26.4062C53.3512 26.4062 53.8679 26.1922 54.2488 25.8113C54.6297 25.4304 54.8438 24.9137 54.8438 24.375V12.1875C54.8438 11.6488 54.6297 11.1321 54.2488 10.7512C53.8679 10.3703 53.3512 10.1562 52.8125 10.1562H40.625C40.0863 10.1562 39.5696 10.3703 39.1887 10.7512C38.8078 11.1321 38.5938 11.6488 38.5938 12.1875C38.5938 12.7262 38.8078 13.2429 39.1887 13.6238C39.5696 14.0047 40.0863 14.2188 40.625 14.2188Z" fill="white"/>
<path d="M24.375 50.7812H14.2188V40.625C14.2188 40.0863 14.0047 39.5696 13.6238 39.1887C13.2429 38.8078 12.7262 38.5938 12.1875 38.5938C11.6488 38.5938 11.1321 38.8078 10.7512 39.1887C10.3703 39.5696 10.1562 40.0863 10.1562 40.625V52.8125C10.1562 53.3512 10.3703 53.8679 10.7512 54.2488C11.1321 54.6297 11.6488 54.8438 12.1875 54.8438H24.375C24.9137 54.8438 25.4304 54.6297 25.8113 54.2488C26.1922 53.8679 26.4062 53.3512 26.4062 52.8125C26.4062 52.2738 26.1922 51.7571 25.8113 51.3762C25.4304 50.9953 24.9137 50.7812 24.375 50.7812Z" fill="white"/>
<path d="M52.8125 38.5938C52.2738 38.5938 51.7571 38.8078 51.3762 39.1887C50.9953 39.5696 50.7812 40.0863 50.7812 40.625V50.7812H40.625C40.0863 50.7812 39.5696 50.9953 39.1887 51.3762C38.8078 51.7571 38.5938 52.2738 38.5938 52.8125C38.5938 53.3512 38.8078 53.8679 39.1887 54.2488C39.5696 54.6297 40.0863 54.8438 40.625 54.8438H52.8125C53.3512 54.8438 53.8679 54.6297 54.2488 54.2488C54.6297 53.8679 54.8438 53.3512 54.8438 52.8125V40.625C54.8438 40.0863 54.6297 39.5696 54.2488 39.1887C53.8679 38.8078 53.3512 38.5938 52.8125 38.5938Z" fill="white"/>
<path d="M60.9375 30.4688H4.0625C3.52378 30.4688 3.00712 30.6828 2.62619 31.0637C2.24526 31.4446 2.03125 31.9613 2.03125 32.5C2.03125 33.0387 2.24526 33.5554 2.62619 33.9363C3.00712 34.3172 3.52378 34.5312 4.0625 34.5312H60.9375C61.4762 34.5312 61.9929 34.3172 62.3738 33.9363C62.7547 33.5554 62.9688 33.0387 62.9688 32.5C62.9688 31.9613 62.7547 31.4446 62.3738 31.0637C61.9929 30.6828 61.4762 30.4688 60.9375 30.4688Z" fill="#00CE08"/>
</svg>
